<svg width="24" height="24" viewBox="0 0 24 24" fill="none" xmlns="http://www.w3.org/2000/svg">
    <path d="M2.48438 10.656L11.9988 3.73047" stroke="#1B1B1B" stroke-linecap="round"/>
    <path d="M21.5156 10.656L12.0012 3.73047" stroke="#1B1B1B" stroke-linecap="round"/>
    <path d="M4.91406 9.11719V19.2714C4.91406 19.8237 5.36178 20.2714 5.91406 20.2714H8.96258C9.51487 20.2714 9.96258 19.8237 9.96258 19.2714V15.2344C9.9605 14.5082 10.389 13.0557 12.1196 13.0557" stroke="#1B1B1B" stroke-linecap="round"/>
    <path d="M19.2031 9.02734V19.2684C19.2031 19.8207 18.7554 20.2684 18.2031 20.2684H15.1546C14.6023 20.2684 14.1546 19.8207 14.1546 19.2684V15.2315C14.1567 14.5052 13.7282 13.0528 11.9976 13.0528" stroke="#1B1B1B" stroke-linecap="round"/>
    <path d="M19.2623 9.18872L12.0499 3.9375L4.85938 8.94908V18.9723C4.89424 19.9659 5.73096 20.3015 6.14497 20.345H8.56361C9.94071 20.345 10.1397 19.4299 10.0671 18.9723V15.2027C10.0671 13.599 11.389 13.1545 12.0499 13.1327C13.7059 13.1327 14.1345 14.5127 14.1417 15.2027V18.9723C14.1417 19.809 14.7083 20.1489 14.9915 20.2143H18.0857C19.1664 20.2143 19.3204 19.0231 19.2623 18.4276V9.18872Z" fill="#1B1B1B"/>
</svg>
